<svg xmlns="http://www.w3.org/2000/svg" version="1.1" xmlns:xlink="http://www.w3.org/1999/xlink" xmlns:svgjs="http://svgjs.dev/svgjs" width="1000" height="1000" viewBox="0 0 1000 1000"><rect width="1000" height="1000" fill="#ffffff"></rect><g transform="matrix(0.7,0,0,0.7,149.57575757575756,282.1265587044535)"><svg viewBox="0 0 396 247" data-background-color="#ffffff" preserveAspectRatio="xMidYMid meet" height="623" width="1000" xmlns="http://www.w3.org/2000/svg" xmlns:xlink="http://www.w3.org/1999/xlink"><g id="tight-bounds" transform="matrix(1,0,0,1,0.2400000000000091,-0.09999999999999432)"><svg viewBox="0 0 395.52 247.2" height="247.2" width="395.52"><g><svg></svg></g><g><svg viewBox="0 0 395.52 247.2" height="247.2" width="395.52"><g transform="matrix(1,0,0,1,75.54432,71.04762490884367)"><svg viewBox="0 0 244.43135999999998 105.10475018231264" height="105.10475018231264" width="244.43135999999998"><g><svg viewBox="0 0 244.43135999999998 105.10475018231264" height="105.10475018231264" width="244.43135999999998"><g><svg viewBox="0 0 244.43135999999998 105.10475018231264" height="105.10475018231264" width="244.43135999999998"><g><svg viewBox="0 0 244.43135999999998 105.10475018231264" height="105.10475018231264" width="244.43135999999998"><g id="textblocktransform"><svg viewBox="0 0 244.43135999999998 105.10475018231264" height="105.10475018231264" width="244.43135999999998" id="textblock"><g><svg viewBox="0 0 244.43135999999998 75.0848869320843" height="75.0848869320843" width="244.43135999999998"><g transform="matrix(1,0,0,1,0,0)"><svg width="244.43135999999998" viewBox="2.9800000190734863 -37.7400016784668 125.07999420166016 38.42000198364258" height="75.0848869320843" data-palette-color="#336a86"><path d="M19.04-35.25L19.04-35.25Q19.43-34.67 19.7-34.06 19.97-33.45 19.97-33.2L19.97-33.2Q19.97-32.86 19.87-32.64 19.78-32.42 19.58-32.13L19.58-32.13Q17.72-31.3 15.84-30.42 13.96-29.54 12.01-28.76L12.01-28.76Q11.52-28.56 11.08-28.37 10.64-28.17 10.11-27.98L10.11-27.98Q10.01-27.88 9.69-27.81 9.38-27.73 9.13-27.73L9.13-27.73Q9.23-26.76 9.25-25.73 9.28-24.71 9.33-23.68L9.33-23.68Q9.33-23.39 9.42-23.12 9.52-22.85 9.52-22.56L9.52-22.56Q9.62-21.63 9.62-20.75 9.62-19.87 9.72-18.95L9.72-18.95Q11.52-19.73 13.31-20.53 15.09-21.34 16.89-22.12L16.89-22.12Q17.19-22.07 17.53-22.02 17.87-21.97 18.16-21.83L18.16-21.83Q18.26-21.73 18.36-21.58 18.46-21.44 18.6-21.34L18.6-21.34Q18.6-21.09 18.92-20.63 19.24-20.17 19.24-19.63L19.24-19.63Q19.24-19.53 19.38-19.31 19.53-19.09 19.58-18.99L19.58-18.99Q19.58-18.51 19.53-18.46L19.53-18.46Q19.87-18.21 20-17.82 20.12-17.43 20.12-17.04L20.12-17.04Q19.24-16.06 18.38-15.72 17.53-15.38 16.65-14.99L16.65-14.99Q16.41-14.84 16.11-14.7 15.82-14.55 15.53-14.4L15.53-14.4Q15.14-14.26 14.77-14.14 14.4-14.01 14.01-13.82L14.01-13.82Q13.43-13.48 12.7-13.04 11.96-12.6 11.38-12.5L11.38-12.5Q10.99-12.4 10.72-12.38 10.45-12.35 10.11-12.11L10.11-12.11Q10.06-11.52 10.08-10.96 10.11-10.4 10.11-9.86L10.11-9.86Q10.11-9.28 10.03-8.72 9.96-8.15 9.96-7.57L9.96-7.57Q9.96-6.59 9.86-5.64 9.77-4.69 9.77-3.76L9.77-3.76Q9.77-3.17 9.81-2.61 9.86-2.05 9.86-1.51L9.86-1.51Q9.86-1.22 9.77-0.98 9.67-0.73 9.57-0.49L9.57-0.49Q8.89-0.39 8.74-0.51 8.59-0.63 8.4-0.73L8.4-0.73Q8.15-0.73 8.08-0.54 8.01-0.34 7.76-0.24L7.76-0.24Q7.57-0.29 7.35-0.27 7.13-0.24 6.98-0.34L6.98-0.34Q6.59-0.2 6.27 0 5.96 0.2 5.57 0.29L5.57 0.29Q4.83 0.2 4.66 0.22 4.49 0.24 4.3 0.29L4.3 0.29Q3.96-0.05 3.98-0.56 4-1.07 3.71-1.46L3.71-1.46Q3.71-1.95 3.61-2.08 3.52-2.2 3.52-2.29L3.52-2.29Q3.52-2.44 3.54-2.61 3.56-2.78 3.56-2.98L3.56-2.98Q3.56-3.42 3.52-3.66L3.52-3.66Q3.56-3.96 3.61-4.57 3.66-5.18 3.71-5.83 3.76-6.49 3.76-7.13 3.76-7.76 3.76-8.15L3.76-8.15Q3.76-8.4 3.86-8.57 3.96-8.74 3.96-8.98L3.96-8.98Q3.96-9.38 3.93-9.69 3.91-10.01 3.91-10.35L3.91-10.35Q3.91-11.04 3.93-11.72 3.96-12.4 3.96-13.09L3.96-13.09Q3.96-15.19 3.74-17.21 3.52-19.24 3.52-21.29L3.52-21.29Q3.52-22.41 3.42-23.75 3.32-25.1 3.17-26.22L3.17-26.22Q3.17-26.46 3.1-26.64 3.03-26.81 3.03-27L3.03-27Q2.98-27.59 2.98-28.2 2.98-28.81 2.98-29.44L2.98-29.44Q2.98-29.83 2.98-30.54 2.98-31.25 2.98-32.01 2.98-32.76 3-33.45 3.03-34.13 3.08-34.42L3.08-34.42Q3.08-34.47 3.37-34.59 3.66-34.72 3.76-34.72L3.76-34.72Q4-34.72 4.15-34.57 4.3-34.42 4.49-34.28L4.49-34.28Q4.69-34.42 4.91-34.42 5.13-34.42 5.37-34.42L5.37-34.42Q6.1-34.57 6.27-34.4 6.45-34.23 6.54-34.23L6.54-34.23Q6.69-34.23 6.79-34.38 6.88-34.52 7.03-34.52L7.03-34.52Q7.42-34.52 7.5-34.33 7.57-34.13 7.76-34.13L7.76-34.13Q7.96-34.13 8.06-34.28 8.15-34.42 8.25-34.42L8.25-34.42Q8.4-34.42 8.54-34.35 8.69-34.28 8.84-34.28L8.84-34.28Q9.08-34.28 9.38-34.45 9.67-34.62 9.91-34.72L9.91-34.72Q10.3-34.81 10.62-34.96 10.94-35.11 11.28-35.21L11.28-35.21Q12.01-35.64 12.38-35.77 12.74-35.89 13.13-36.08L13.13-36.08Q13.96-36.47 14.72-36.84 15.48-37.21 16.31-37.55L16.31-37.55Q16.75-37.55 16.89-37.74L16.89-37.74Q17.24-37.6 17.77-37.7L17.77-37.7Q18.36-37.16 18.53-36.87 18.7-36.57 18.95-36.33L18.95-36.33Q19.24-35.94 19.34-35.94L19.34-35.94Q19.34-35.79 19.19-35.6 19.04-35.4 19.04-35.25ZM32.27-33.2L32.27-33.2Q32.27-32.76 31.98-32.54 31.69-32.32 31.44-31.98L31.44-31.98Q30.95-31.54 30.59-31.08 30.22-30.62 29.73-30.18L29.73-30.18Q29.54-29.98 29.2-29.66 28.85-29.35 28.49-29.03 28.12-28.71 27.76-28.47 27.39-28.22 27.15-28.22L27.15-28.22Q26.76-28.22 26.14-28.49 25.53-28.76 25.1-28.86L25.1-28.86Q24.75-28.91 24.48-28.93 24.22-28.96 23.97-29.2L23.97-29.2Q23.09-29.39 22.85-29.81 22.6-30.22 22.31-30.66L22.31-30.66Q22.31-30.86 22.46-30.91 22.6-30.96 22.7-31.1L22.7-31.1Q23.19-31.74 23.53-32.15 23.87-32.57 24.31-33.01L24.31-33.01Q25.14-33.74 25.9-34.52 26.66-35.3 27.49-35.99L27.49-35.99Q27.88-36.04 28.07-36.28 28.27-36.52 28.66-36.52L28.66-36.52Q29.05-36.52 29.32-36.28 29.59-36.04 29.81-35.72 30.03-35.4 30.25-35.08 30.47-34.77 30.76-34.62L30.76-34.62Q31.1-34.38 31.69-33.98 32.27-33.59 32.27-33.2ZM25.58-24.12L25.58-24.12Q25.93-23.93 26.1-23.61 26.27-23.29 26.61-23.14L26.61-23.14Q26.9-23 27.24-23 27.59-23 27.83-22.9L27.83-22.9Q28.02-22.8 28.12-22.66 28.22-22.51 28.32-22.36L28.32-22.36Q28.61-22.12 29.22-21.92 29.83-21.73 30.03-21.48L30.03-21.48Q30.37-21.04 30.54-20.36 30.71-19.68 30.81-18.92 30.91-18.16 30.95-17.41 31-16.65 31.1-16.11L31.1-16.11Q31.2-14.99 31.35-13.89 31.49-12.79 31.49-11.67L31.49-11.67Q31.49-10.55 31.39-9.38 31.3-8.2 31.3-7.08L31.3-7.08Q31.3-6.49 31.27-5.62 31.25-4.74 30.86-4.25L30.86-4.25Q30.81-4.05 30.81-3.56L30.81-3.56 30.81-2Q30.81-1.71 30.86-1.42 30.91-1.12 30.91-0.78L30.91-0.78Q30.91-0.24 30.61 0L30.61 0Q30.47-0.05 30.3-0.05 30.12-0.05 29.98-0.05L29.98-0.05Q29.44-0.05 29.2 0.15L29.2 0.15Q28.66 0.1 28.17 0.05 27.68 0 27.15 0L27.15 0Q26.32 0 25.34 0.24L25.34 0.24Q25.14-0.24 25.17-0.78 25.19-1.32 24.95-1.76L24.95-1.76Q24.9-1.9 24.88-2.03 24.85-2.15 24.85-2.29L24.85-2.29Q25-2.88 25-3.1 25-3.32 25-3.56L25-3.56Q25-4.25 24.95-4.96 24.9-5.66 25-6.35L25-6.35Q25-6.59 25.07-6.79 25.14-6.98 25.14-7.23L25.14-7.23Q25.14-7.47 25.05-7.57 24.95-7.67 24.95-7.81L24.95-7.81Q24.95-7.96 24.97-8.3 25-8.64 25.1-8.74L25.1-8.74Q25.1-9.13 25.12-9.5 25.14-9.86 25.14-10.21L25.14-10.21Q25.14-10.99 25.1-11.77 25.05-12.55 25.05-13.28L25.05-13.28Q25.05-13.62 25-13.72 24.95-13.82 24.9-13.87 24.85-13.92 24.75-13.94 24.66-13.96 24.61-14.11L24.61-14.11Q24.8-16.26 24.46-18.41 24.12-20.56 24.12-22.75L24.12-22.75Q24.12-23.1 24.22-23.27 24.31-23.44 24.46-23.54 24.61-23.63 24.73-23.75 24.85-23.88 24.9-24.12L24.9-24.12Q25.29-24.02 25.58-24.12ZM57.17-34.91L57.17-34.91Q57.08-34.72 57.1-34.52 57.12-34.33 57.12-34.08L57.12-34.08Q57.03-33.5 57.12-33.5 57.22-33.5 57.22-33.4L57.22-33.4 56.88-32.91Q56.88-32.62 56.76-32.37 56.64-32.13 56.68-31.79L56.68-31.79Q56.54-31.54 56.42-31.3 56.29-31.05 56.05-30.81L56.05-30.81 55.41-30.81Q54.88-30.81 54.27-30.74 53.66-30.66 53.07-30.66L53.07-30.66Q52.97-30.66 52.83-30.69 52.68-30.71 52.53-30.71L52.53-30.71Q52.44-30.71 52.29-30.69 52.14-30.66 51.95-30.66L51.95-30.66Q51.22-30.66 50.51-30.74 49.8-30.81 49.02-30.81L49.02-30.81Q48.82-30.81 48.63-30.81 48.43-30.81 48.19-30.76L48.19-30.76Q48.14-29.93 48.12-29.08 48.09-28.22 48.09-27.34L48.09-27.34Q48.09-27.1 48.04-26.83 47.99-26.56 47.99-26.32L47.99-26.32Q47.94-25.68 47.92-25.1 47.9-24.51 47.9-23.88L47.9-23.88Q47.9-22.51 47.92-21.14 47.94-19.78 47.99-18.36L47.99-18.36Q48.04-17.63 48.09-16.94 48.14-16.26 48.14-15.53L48.14-15.53Q48.14-13.87 48.09-12.23 48.04-10.6 48.04-8.94L48.04-8.94Q48.04-8.4 47.99-7.93 47.94-7.47 47.94-6.93L47.94-6.93Q47.94-5.81 47.99-4.69 48.04-3.56 48.04-2.44L48.04-2.44Q48.04-1.9 48.02-1.37 47.99-0.83 47.99-0.29L47.99-0.29Q47.75 0.1 47.65 0.39 47.55 0.68 47.07 0.68L47.07 0.68Q46.72 0.59 46.75 0.46 46.77 0.34 46.67 0.24L46.67 0.24Q46.24 0.2 46.02 0.32 45.8 0.44 45.5 0.54L45.5 0.54Q45.36 0.49 45.19 0.49 45.01 0.49 44.87 0.49L44.87 0.49Q44.77 0.49 44.67 0.56 44.58 0.63 44.23 0.63L44.23 0.63Q43.94 0.68 43.89 0.54 43.84 0.39 43.6 0.39L43.6 0.39Q43.35 0.54 43.04 0.61 42.72 0.68 42.43 0.68L42.43 0.68Q42.13 0.49 42.16 0.32 42.18 0.15 42.08-0.05L42.08-0.05Q42.04-0.15 41.91-0.32 41.79-0.49 41.69-0.59L41.69-0.59Q41.79-1.27 41.84-1.81 41.89-2.34 41.89-2.98L41.89-2.98Q41.89-4.25 41.79-5.47 41.69-6.69 41.69-7.96L41.69-7.96Q41.69-8.35 41.79-8.79 41.89-9.23 41.89-9.72L41.89-9.72Q41.79-10.11 41.84-10.18 41.89-10.25 41.89-10.35L41.89-10.35Q41.89-10.64 41.87-10.94 41.84-11.23 41.84-11.52L41.84-11.52Q41.84-12.11 41.87-12.7 41.89-13.28 41.89-13.87L41.89-13.87Q41.89-14.11 41.87-14.38 41.84-14.65 41.84-14.89L41.84-14.89Q41.79-15.33 41.82-15.82 41.84-16.31 41.84-16.8L41.84-16.8Q41.84-19.14 41.77-21.44 41.69-23.73 41.69-26.07L41.69-26.07Q41.69-27.25 41.82-28.39 41.94-29.54 41.94-30.71L41.94-30.71Q41.94-30.86 41.84-31.1 41.74-31.35 41.65-31.45L41.65-31.45Q41.4-31.45 41.18-31.47 40.96-31.49 40.72-31.49L40.72-31.49Q40.18-31.49 39.69-31.35L39.69-31.35Q38.76-31.3 37.91-31.23 37.06-31.15 36.18-31.1L36.18-31.1Q35.59-31.15 35.47-31.13 35.35-31.1 35.2-31.1L35.2-31.1Q34.81-31.1 34.61-31.3L34.61-31.3 34.61-31.93Q34.32-32.52 34.37-32.57 34.42-32.62 34.42-32.71L34.42-32.71Q34.42-32.86 34.15-33.03 33.88-33.2 33.88-33.59L33.88-33.59Q33.83-33.98 33.69-34.18 33.54-34.38 33.54-34.57L33.54-34.57Q33.54-34.91 33.69-35.35L33.69-35.35Q34.13-35.6 34.54-35.69 34.96-35.79 35.49-35.94L35.49-35.94Q35.79-36.04 36.03-36.13 36.27-36.23 36.57-36.28L36.57-36.28Q36.91-36.33 37.25-36.33 37.59-36.33 37.93-36.38L37.93-36.38Q38.67-36.52 39.47-36.62 40.28-36.72 41.01-36.72L41.01-36.72Q41.69-36.72 42.38-36.55 43.06-36.38 43.6-36.38L43.6-36.38Q44.38-36.38 45.09-36.28 45.8-36.18 46.58-36.18L46.58-36.18Q46.67-36.18 46.89-36.11 47.11-36.04 47.41-36.04L47.41-36.04 52.14-36.04Q52.53-35.94 52.7-35.99 52.88-36.04 53.02-36.04L53.02-36.04Q53.41-36.04 53.75-35.99 54.1-35.94 54.49-35.94L54.49-35.94Q54.83-35.94 55.02-35.99L55.02-35.99Q55.41-35.94 55.76-35.77 56.1-35.6 56.54-35.6L56.54-35.6Q56.73-35.45 56.83-35.23 56.93-35.01 57.17-34.91ZM78.07-8.35L78.07-8.35Q78.41-7.91 78.48-7.64 78.56-7.37 78.65-7.1 78.75-6.84 78.83-6.59 78.9-6.35 78.9-6.3L78.9-6.3Q78.9-5.96 78.78-5.74 78.65-5.52 78.41-5.18L78.41-5.18Q76.46-4.44 74.55-3.74 72.65-3.03 70.65-2.34L70.65-2.34Q70.11-2.2 69.67-2.03 69.23-1.86 68.69-1.76L68.69-1.76Q68.6-1.66 68.38-1.59 68.16-1.51 67.86-1.42 67.57-1.32 67.3-1.25 67.03-1.17 66.94-1.17L66.94-1.17Q66.55-1.07 66.08-1.1 65.62-1.12 65.18-1.07L65.18-1.07Q64.93-1.03 64.84-0.83 64.74-0.63 64.62-0.42 64.49-0.2 64.25-0.02 64.01 0.15 63.57 0.15L63.57 0.15Q63.13 0.15 62.69 0.1 62.25 0.05 61.76-0.15L61.76-0.15Q61.66-0.29 61.69-0.51 61.71-0.73 61.61-0.88L61.61-0.88Q61.17-0.93 60.93-0.81 60.69-0.68 60.44-0.63L60.44-0.63Q60.3-0.83 60.22-1.1 60.15-1.37 59.95-1.56L59.95-1.56Q59.9-1.81 59.9-2.05 59.9-2.29 59.9-2.54L59.9-2.54Q59.9-2.88 59.93-3.34 59.95-3.81 60.1-4.05L60.1-4.05Q60.25-6.84 60.25-9.62 60.25-12.4 60.25-15.19L60.25-15.19Q60.25-15.48 60.25-15.94 60.25-16.41 60.22-16.89 60.2-17.38 60.17-17.8 60.15-18.21 60.1-18.41L60.1-18.41Q60.15-18.75 60.15-19.07 60.15-19.38 60.15-19.73L60.15-19.73Q60.15-20.02 60.15-20.26 60.15-20.51 60.05-20.75L60.05-20.75Q60.1-20.95 60.1-21.29L60.1-21.29Q60.1-21.53 60.05-21.78 60-22.02 60-22.27L60-22.27Q60-22.66 60.03-23.02 60.05-23.39 60.05-23.78L60.05-23.78Q60.05-25.05 59.93-26.29 59.81-27.54 59.81-28.81L59.81-28.81Q59.81-30.47 59.78-32.13 59.76-33.79 59.71-35.45L59.71-35.45Q59.9-35.94 59.9-36.28L59.9-36.28Q60.59-36.62 60.98-36.52 61.37-36.43 61.76-36.43L61.76-36.43Q62-36.43 62.2-36.47 62.39-36.52 62.59-36.62L62.59-36.62Q62.83-36.57 63.01-36.5 63.18-36.43 63.42-36.43L63.42-36.43Q64.15-36.57 64.23-36.47 64.3-36.38 64.45-36.28L64.45-36.28Q64.64-36.33 64.76-36.45 64.89-36.57 65.08-36.57L65.08-36.57Q65.37-36.57 65.52-36.21 65.67-35.84 65.86-35.6L65.86-35.6Q65.86-35.06 66.06-34.62L66.06-34.62Q66.15-32.62 66.13-30.66 66.11-28.71 66.25-26.76L66.25-26.76Q66.3-25.88 66.37-24.93 66.45-23.97 66.45-23.1L66.45-23.1Q66.45-21.63 66.47-20.14 66.5-18.65 66.5-17.14L66.5-17.14Q66.5-16.89 66.52-16.7 66.55-16.5 66.55-16.26L66.55-16.26Q66.55-15.67 66.5-15.14 66.45-14.6 66.45-14.06L66.45-14.06 66.45-10.25Q66.45-9.77 66.42-9.25 66.4-8.74 66.45-8.25L66.45-8.25 66.64-7.67Q67.18-7.86 67.74-8.08 68.3-8.3 68.94-8.4L68.94-8.4Q69.33-8.5 69.67-8.59 70.01-8.69 70.4-8.79L70.4-8.79Q71.09-9.18 71.48-9.33 71.87-9.47 72.26-9.62L72.26-9.62Q73.09-9.91 73.87-10.23 74.65-10.55 75.48-10.84L75.48-10.84Q75.87-10.74 76.12-10.94L76.12-10.94Q76.6-10.84 76.99-10.84L76.99-10.84Q77.53-10.3 77.65-10.01 77.78-9.72 78.02-9.47L78.02-9.47Q77.92-9.23 78.04-9.18 78.17-9.13 78.22-8.94L78.22-8.94Q78.41-8.84 78.26-8.67 78.12-8.5 78.07-8.35ZM91.4-37.01L91.49-36.96Q91.74-36.08 91.98-35.23 92.23-34.38 92.57-33.54L92.57-33.54Q93.3-33.45 93.47-33.4 93.64-33.35 93.89-33.25L93.89-33.25Q94.42-31.98 94.55-30.54 94.67-29.1 94.91-27.73L94.91-27.73Q95.84-26.51 96.25-25.12 96.67-23.73 97.21-22.31L97.21-22.31Q97.35-21.83 97.4-21.7 97.45-21.58 97.45-21.48L97.45-21.48Q97.74-20.65 98.04-19.78 98.33-18.9 98.67-18.07L98.67-18.07Q98.82-17.63 98.99-17.21 99.16-16.8 99.31-16.41L99.31-16.41Q99.45-15.92 99.57-15.41 99.7-14.89 99.84-14.4L99.84-14.4Q100.19-13.43 100.58-12.45 100.97-11.47 101.36-10.5L101.36-10.5Q101.5-10.16 101.92-8.98 102.33-7.81 102.77-6.52 103.21-5.22 103.58-4.13 103.95-3.03 103.95-2.78L103.95-2.78Q103.95-2.39 104.02-1.98 104.09-1.56 104.14-1.12L104.14-1.12Q103.95-0.63 103.65-0.59 103.36-0.54 103.12-0.63L103.12-0.63Q102.87-0.54 102.65-0.44 102.43-0.34 102.24-0.24L102.24-0.24Q102.09-0.2 101.99-0.1 101.89 0 101.75 0L101.75 0Q101.16 0 100.99 0.12 100.82 0.24 100.48 0.24L100.48 0.24Q100.04 0.1 99.92 0.22 99.79 0.34 99.7 0.39L99.7 0.39Q99.5 0.49 99.26 0.49 99.01 0.49 98.77 0.54L98.77 0.54Q98.67 0.34 98.6 0.15 98.53-0.05 98.38-0.29L98.38-0.29Q97.84-1.07 97.62-1.81 97.4-2.54 97.26-2.98L97.26-2.98Q97.01-3.52 96.84-4.05 96.67-4.59 96.43-5.13L96.43-5.13Q96.13-5.03 95.89-4.91 95.64-4.79 95.5-4.59L95.5-4.59Q94.91-4.59 94.91-4.44 94.91-4.3 94.81-4.15L94.81-4.15Q94.52-4.05 94.35-3.96 94.18-3.86 93.79-3.91L93.79-3.91Q93.54-3.66 93.3-3.49 93.06-3.32 92.67-3.27L92.67-3.27Q92.28-2.88 91.86-2.61 91.45-2.34 90.91-2.49L90.91-2.49Q90.22-2.34 89.54-2.22 88.86-2.1 88.17-2.1L88.17-2.1Q87.39-2.34 87.2-2.54 87-2.73 86.61-2.73L86.61-2.73Q86.66-3.42 86.32-3.66L86.32-3.66Q86.32-3.81 86.34-4.13 86.37-4.44 86.46-4.54L86.46-4.54Q87.1-4.83 87.2-5.18 87.29-5.52 87.73-5.62L87.73-5.62Q87.83-5.81 87.95-5.98 88.08-6.15 88.17-6.35L88.17-6.35Q88.42-6.45 88.59-6.49 88.76-6.54 88.86-6.79L88.86-6.79Q89.1-6.79 89.59-7.1 90.08-7.42 90.22-7.62L90.22-7.62Q90.62-7.76 90.71-7.89 90.81-8.01 90.96-8.11L90.96-8.11Q91.45-8.06 91.59-8.2L91.59-8.2Q91.98-8.01 92.47-8.01L92.47-8.01Q92.67-8.01 92.81-8.03 92.96-8.06 93.15-8.06L93.15-8.06Q93.54-8.45 94.16-8.57 94.77-8.69 95.16-9.08L95.16-9.08Q95.01-9.47 94.91-10.03 94.81-10.6 94.57-10.94L94.57-10.94Q94.47-11.57 94.25-12.16 94.03-12.74 93.89-13.28L93.89-13.28Q93.35-15.33 92.62-17.29 91.88-19.24 91.4-21.29L91.4-21.29Q91.3-21.53 91.18-21.8 91.05-22.07 90.96-22.31L90.96-22.31Q90.71-21.73 90.71-21.66 90.71-21.58 90.62-21.48L90.62-21.48Q90.57-21.24 90.52-21.07 90.47-20.9 90.37-20.65L90.37-20.65Q90.22-20.26 90.1-19.8 89.98-19.34 89.88-18.95L89.88-18.95Q89.64-18.12 89.44-17.21 89.25-16.31 89-15.43L89-15.43Q88.52-13.92 88-12.43 87.49-10.94 87-9.42L87-9.42Q86.9-8.74 86.78-8.37 86.66-8.01 86.54-7.64 86.42-7.28 86.34-6.93 86.27-6.59 86.27-6.4L86.27-6.4Q85.59-4.83 85.12-3.22 84.66-1.61 83.97-0.1L83.97-0.1Q83.78 0 83.63 0.15 83.49 0.29 83.29 0.29L83.29 0.29Q82.9 0.29 82.88 0.1 82.85-0.1 82.66-0.1L82.66-0.1Q82.46-0.1 82.31-0.02 82.17 0.05 82.02 0.15L82.02 0.15Q81.78 0.05 81.46 0.02 81.14 0 81-0.2L81-0.2Q80.65 0.05 80.31 0.05L80.31 0.05Q79.92 0.05 79.53-0.2L79.53-0.2Q79.24-0.1 78.95-0.1L78.95-0.1Q78.8-0.1 78.6-0.15 78.41-0.2 78.31-0.29L78.31-0.29Q78.26-0.49 78.26-0.68 78.26-0.88 78.26-1.12L78.26-1.12Q78.26-1.61 78.16-1.86L78.16-1.86Q79.04-4.35 79.87-6.91 80.7-9.47 81.53-12.11L81.53-12.11Q81.97-13.33 82.39-14.5 82.8-15.67 83.19-16.89L83.19-16.89Q83.39-17.58 83.53-18.19 83.68-18.8 83.93-19.38L83.93-19.38Q84.32-20.65 84.73-21.95 85.15-23.24 85.49-24.51L85.49-24.51Q85.68-24.66 85.73-24.85 85.78-25.05 85.88-25.29L85.88-25.29 85.83-25.93Q86.17-26.42 86.29-26.78 86.42-27.15 86.46-27.54L86.46-27.54Q86.71-28.13 86.9-28.81 87.1-29.49 87.2-30.08L87.2-30.08Q87.29-30.86 87.32-31.86 87.34-32.86 87.59-33.54L87.59-33.54Q87.69-33.74 87.76-33.81 87.83-33.89 87.83-34.13L87.83-34.13Q87.93-34.23 88.05-34.35 88.17-34.47 88.22-34.62L88.22-34.62Q88.47-35.01 88.39-35.3 88.32-35.6 88.32-35.94L88.32-35.94Q88.76-36.18 88.71-36.38 88.66-36.57 88.66-36.77L88.66-36.77Q88.66-37.01 88.98-37.23 89.3-37.45 89.39-37.7L89.39-37.7Q89.69-37.65 89.98-37.62 90.27-37.6 90.57-37.65L90.57-37.65Q90.91-37.01 91.4-37.01L91.4-37.01ZM126.11-27.49L126.11-27.49Q126.11-26.95 126.33-26.59 126.55-26.22 126.55-25.93L126.55-25.93Q126.45-25.44 126.75-24.78 127.04-24.12 127.04-23.44L127.04-23.44Q126.94-23.14 126.28-22.68 125.62-22.22 124.82-21.68 124.01-21.14 123.25-20.63 122.5-20.12 122.2-19.82L122.2-19.82Q122.45-19.43 122.81-19.19 123.18-18.95 123.52-18.7L123.52-18.7Q123.82-18.46 124.38-17.99 124.94-17.53 125.55-16.99 126.16-16.46 126.67-15.97 127.18-15.48 127.33-15.23L127.33-15.23Q127.43-15.19 127.5-14.89 127.58-14.6 127.62-14.23 127.67-13.87 127.7-13.53 127.72-13.18 127.72-13.09L127.72-13.09Q127.67-12.55 127.75-12.3 127.82-12.06 127.89-11.79 127.97-11.52 128.01-11.28 128.06-11.04 128.06-11.04L128.06-11.04Q128.06-10.74 127.8-10.5 127.53-10.25 127.28-10.06L127.28-10.06Q127.04-9.86 126.82-9.67 126.6-9.47 126.35-9.23L126.35-9.23Q126.06-8.98 125.7-8.76 125.33-8.54 125.04-8.3L125.04-8.3Q124.84-8.2 124.69-8.03 124.55-7.86 124.4-7.76L124.4-7.76Q123.96-7.37 123.43-7.01 122.89-6.64 122.4-6.35L122.4-6.35Q121.86-6.01 121.37-5.64 120.89-5.27 120.35-4.88L120.35-4.88Q119.62-4.44 118.91-4.03 118.2-3.61 117.52-3.17L117.52-3.17Q117.18-2.93 116.86-2.69 116.54-2.44 116.2-2.25L116.2-2.25Q115.22-1.71 114.25-1.12 113.27-0.54 112.34 0.15L112.34 0.15Q111.56 0.34 111.22 0.46 110.88 0.59 110.53 0.59L110.53 0.59Q110.24 0.59 110.17 0.37 110.09 0.15 109.9 0.15L109.9 0.15Q109.17 0.24 109.09 0.17 109.02 0.1 108.87 0L108.87 0Q108.14 0.1 107.65 0L107.65 0Q107.51-0.24 107.46-0.61 107.41-0.98 107.17-1.22L107.17-1.22Q107.26-1.71 107.19-2.15 107.12-2.59 107.21-3.03L107.21-3.03Q107.07-3.61 107.07-4.1L107.07-4.1Q107.07-4.74 107.21-5.42L107.21-5.42Q107.07-5.86 107.07-6.3L107.07-6.3Q107.07-6.69 107.12-7.08 107.17-7.47 107.17-7.86L107.17-7.86Q107.17-8.35 106.97-8.74L106.97-8.74Q106.97-9.62 106.95-10.47 106.92-11.33 106.92-12.21L106.92-12.21Q106.92-12.6 106.92-12.99 106.92-13.38 106.97-13.82L106.97-13.82Q106.92-14.06 106.92-14.55L106.92-14.55Q106.92-14.84 107.02-15.06 107.12-15.28 107.12-15.53L107.12-15.53Q107.12-16.06 107.04-16.55 106.97-17.04 106.97-17.58L106.97-17.58Q106.97-18.07 107.04-18.51 107.12-18.95 107.12-19.43L107.12-19.43Q106.97-19.63 106.92-19.87 106.87-20.12 106.87-20.36L106.87-20.36Q106.87-20.56 106.97-20.95L106.97-20.95Q106.97-21.34 106.92-21.78 106.87-22.22 106.87-22.61L106.87-22.61Q106.87-22.8 106.9-22.95 106.92-23.1 106.97-23.29L106.97-23.29Q106.87-23.63 106.87-23.97 106.87-24.32 106.87-24.66L106.87-24.66Q106.87-25.1 106.92-25.56 106.97-26.03 106.97-26.46L106.97-26.46Q106.92-27.2 106.99-27.61 107.07-28.03 107.12-28.47L107.12-28.47 107.12-31.25Q107.12-31.64 107.02-32.1 106.92-32.57 106.92-33.01L106.92-33.01Q106.92-33.25 106.97-33.74 107.02-34.23 107.12-34.47L107.12-34.47Q107.8-35.5 108.73-35.64L108.73-35.64Q108.92-35.74 109.02-35.91 109.12-36.08 109.46-36.08L109.46-36.08Q110.05-36.57 110.24-36.84 110.44-37.11 110.73-37.35L110.73-37.35Q110.88-37.35 111-37.43 111.12-37.5 111.32-37.5L111.32-37.5Q111.66-37.4 111.88-37.3 112.1-37.21 112.34-37.16L112.34-37.16Q113.32-36.43 114.27-35.72 115.22-35.01 116.2-34.23L116.2-34.23Q116.64-33.84 117.05-33.45 117.47-33.06 117.91-32.71L117.91-32.71Q118.15-32.57 118.44-32.42 118.74-32.28 118.98-32.08L118.98-32.08Q119.52-31.74 120.06-31.37 120.59-31.01 121.13-30.66L121.13-30.66 124.65-28.47Q125.04-28.22 125.4-27.98 125.77-27.73 126.11-27.49ZM119.13-25.39L119.13-25.39Q118.4-25.73 117.74-26.22 117.08-26.71 116.34-26.95L116.34-26.95Q115.95-27.34 115.51-27.49 115.08-27.64 114.68-27.93L114.68-27.93Q114.25-28.32 113.9-28.61 113.56-28.91 113.02-29.15L113.02-29.15Q112.78-27.64 112.66-26.2 112.54-24.76 112.54-23.29L112.54-23.29Q112.54-21.78 112.83-20.41L112.83-20.41Q113.37-20.65 113.85-20.95 114.34-21.24 114.83-21.53L114.83-21.53Q115.03-21.63 115.2-21.73 115.37-21.83 115.61-21.92L115.61-21.92Q115.86-22.12 116.1-22.31 116.34-22.51 116.59-22.66L116.59-22.66Q117.13-23.05 117.64-23.36 118.15-23.68 118.69-24.07L118.69-24.07Q118.93-24.27 119.23-24.39 119.52-24.51 119.81-24.76L119.81-24.76Q119.76-24.95 119.49-25.07 119.23-25.2 119.13-25.39ZM117.71-16.26L117.71-16.26Q117.57-16.26 117.42-16.33 117.27-16.41 117.08-16.41L117.08-16.41Q116.49-16.02 115.98-15.75 115.47-15.48 114.93-15.14L114.93-15.14Q114.68-14.99 114.44-14.79 114.2-14.6 113.95-14.5L113.95-14.5Q113.32-14.11 112.98-13.84 112.63-13.57 112.44-13.18L112.44-13.18Q112.54-11.82 112.51-10.45 112.49-9.08 112.49-7.67L112.49-7.67Q112.49-7.42 112.63-7.13L112.63-7.13Q113.07-7.18 114.2-7.79 115.32-8.4 116.56-9.18 117.81-9.96 118.96-10.69 120.1-11.43 120.64-11.77L120.64-11.77Q121.03-11.87 121.55-12.16 122.06-12.45 122.16-12.84L122.16-12.84Q121.23-13.92 120.01-14.62 118.79-15.33 117.71-16.26Z" opacity="1" transform="matrix(1,0,0,1,0,0)" fill="#336a86" class="wordmark-text-0" data-fill-palette-color="primary" id="text-0"></path></svg></g></svg></g><g transform="matrix(1,0,0,1,0,92.81062669946303)"><svg viewBox="0 0 244.43135999999998 12.294123482849603" height="12.294123482849603" width="244.43135999999998"><g transform="matrix(1,0,0,1,0,0)"><svg width="244.43135999999998" viewBox="2.4000000953674316 -35.900001525878906 909.5 45.75" height="12.294123482849603" data-palette-color="#8eaec4"><path d="M28-5.95L28-1.7Q24.9 0.4 19.5 0.4L19.5 0.4Q11.9 0.4 7.15-4.28 2.4-8.95 2.4-17L2.4-17Q2.4-24.6 7.23-29.38 12.05-34.15 19.35-34.15L19.35-34.15Q24.6-34.15 27.9-32.35L27.9-32.35 27.9-28.2Q25.7-29.35 23.95-29.85 22.2-30.35 19.35-30.35L19.35-30.35Q13.9-30.35 10.28-26.65 6.65-22.95 6.65-17L6.65-17Q6.65-10.8 10.25-7.1 13.85-3.4 19.8-3.4L19.8-3.4Q24.6-3.4 28-5.95L28-5.95ZM56.05-12.6L56.05-12.6Q56.05-6.95 52.85-3.25 49.65 0.45 44.05 0.45L44.05 0.45Q38.6 0.45 35.42-3.23 32.25-6.9 32.25-12.5L32.25-12.5Q32.25-18.15 35.52-21.93 38.8-25.7 44.05-25.7L44.05-25.7Q49.8-25.7 52.92-22 56.05-18.3 56.05-12.6ZM36.35-12.55L36.35-12.55Q36.35-8.6 38.45-5.83 40.55-3.05 44.05-3.05L44.05-3.05Q47.85-3.05 49.9-5.78 51.95-8.5 51.95-12.55L51.95-12.55Q51.95-16.75 50-19.48 48.05-22.2 44.05-22.2L44.05-22.2Q40.45-22.2 38.4-19.4 36.35-16.6 36.35-12.55ZM81.85-17.45L81.85 0 77.9 0 77.9-16.4Q77.9-19.2 76.47-20.68 75.05-22.15 72.75-22.15L72.75-22.15Q69.9-22.15 67.82-19.95 65.75-17.75 65.75-13.85L65.75-13.85 65.75 0 61.85 0 61.85-25.35 65.75-25.35 65.75-20.95Q68-25.7 73.75-25.7L73.75-25.7Q77.45-25.7 79.65-23.45 81.85-21.2 81.85-17.45L81.85-17.45ZM104.09-6.75L104.09-6.75Q104.09-3.5 101.82-1.6 99.54 0.3 95.59 0.3L95.59 0.3Q90.99 0.3 88.14-1.25L88.14-1.25 88.14-5.1Q91.49-3.1 95.34-3.1L95.34-3.1Q97.64-3.1 98.84-4 100.04-4.9 100.04-6.45L100.04-6.45Q100.04-8.25 98.72-9.25 97.39-10.25 94.29-11.5L94.29-11.5Q91.44-12.6 89.72-14.25 87.99-15.9 87.99-18.7L87.99-18.7Q87.99-21.85 90.37-23.73 92.74-25.6 96.29-25.6L96.29-25.6Q100.24-25.6 102.64-24.5L102.64-24.5 102.64-20.75Q100.34-22.15 96.34-22.15L96.34-22.15Q94.34-22.15 93.17-21.23 91.99-20.3 91.99-18.85L91.99-18.85Q91.99-17.95 92.34-17.28 92.69-16.6 93.72-15.95 94.74-15.3 95.22-15.08 95.69-14.85 97.29-14.15L97.29-14.15Q100.49-12.85 102.29-11.2 104.09-9.55 104.09-6.75ZM122.14-4.4L122.14-0.65Q120.49 0.25 118.44 0.25L118.44 0.25Q110.94 0.25 110.94-7.4L110.94-7.4 110.94-22.15 106.89-22.15 106.89-25.35 110.94-25.35 110.94-31.65 114.89-31.65 114.89-25.35 121.89-25.35 121.89-22.15 114.89-22.15 114.89-7.3Q114.89-3.25 118.69-3.25L118.69-3.25Q120.64-3.25 122.14-4.4L122.14-4.4ZM131.79-13.85L131.79 0 127.84 0 127.89-25.35 131.79-25.35 131.79-20.9Q133.79-25.6 138.69-25.6L138.69-25.6Q139.59-25.6 140.09-25.5L140.09-25.5 140.09-21.6Q139.04-21.95 137.94-21.95L137.94-21.95Q135.29-21.95 133.54-19.5 131.79-17.05 131.79-13.85L131.79-13.85ZM163.89-25.35L163.89 0 159.94 0 159.94-4.4Q157.94 0.3 151.99 0.3L151.99 0.3Q148.24 0.3 146.06-1.93 143.89-4.15 143.89-7.9L143.89-7.9 143.89-25.35 147.84-25.35 147.84-8.9Q147.84-6.15 149.24-4.7 150.64-3.25 153.04-3.25L153.04-3.25Q156.19-3.25 158.06-5.45 159.94-7.65 159.94-11.4L159.94-11.4 159.94-25.35 163.89-25.35ZM178.93-3.05L178.93-3.05Q181.63-3.05 183.23-4.58 184.83-6.1 184.83-8.45L184.83-8.45 184.83-11.7 180.43-11.7Q177.23-11.7 175.63-10.45 174.03-9.2 174.03-7.3 174.03-5.4 175.28-4.23 176.53-3.05 178.93-3.05ZM184.88 0L184.88-3Q182.93 0.25 177.78 0.25L177.78 0.25Q174.23 0.25 172.06-1.85 169.88-3.95 169.88-7.15L169.88-7.15Q169.88-10.8 172.66-12.83 175.43-14.85 180.23-14.85L180.23-14.85 184.83-14.85 184.83-16.15Q184.83-19.15 183.48-20.68 182.13-22.2 178.93-22.2L178.93-22.2Q174.88-22.2 171.73-20.05L171.73-20.05 171.73-24Q174.58-25.75 179.23-25.75L179.23-25.75Q188.78-25.75 188.78-16.05L188.78-16.05 188.78 0 184.88 0ZM227.68-25.35L227.68 0 223.73 0 223.73-4.4Q221.73 0.3 215.78 0.3L215.78 0.3Q212.03 0.3 209.85-1.93 207.68-4.15 207.68-7.9L207.68-7.9 207.68-25.35 211.63-25.35 211.63-8.9Q211.63-6.15 213.03-4.7 214.43-3.25 216.83-3.25L216.83-3.25Q219.98-3.25 221.85-5.45 223.73-7.65 223.73-11.4L223.73-11.4 223.73-25.35 227.68-25.35ZM268.88-17.4L268.88 0 264.93 0 264.93-16.4Q264.93-22.15 260.08-22.15L260.08-22.15Q257.68-22.15 255.78-19.98 253.88-17.8 253.88-13.85L253.88-13.85 253.88 0 249.93 0 249.93-16.4Q249.93-22.15 245.08-22.15L245.08-22.15Q242.68-22.15 240.78-19.98 238.88-17.8 238.88-13.85L238.88-13.85 238.88 0 234.98 0 234.98-25.35 238.88-25.35 238.88-21.25Q240.98-25.7 246.03-25.7L246.03-25.7Q251.88-25.7 253.43-20.75L253.43-20.75Q254.53-23.15 256.5-24.43 258.48-25.7 260.93-25.7L260.93-25.7Q264.88-25.7 266.88-23.45 268.88-21.2 268.88-17.4L268.88-17.4ZM305.52-4.65L305.52-0.9Q303.12 0.55 299.62 0.55L299.62 0.55Q293.62 0.55 290.1-3.28 286.57-7.1 286.57-12.6L286.57-12.6Q286.57-18 290.1-21.9 293.62-25.8 299.72-25.8L299.72-25.8Q302.97-25.8 305.52-24.4L305.52-24.4 305.52-20.65Q303.22-22.2 300.12-22.2L300.12-22.2Q295.82-22.2 293.25-19.43 290.67-16.65 290.67-12.55L290.67-12.55Q290.72-8.45 293.17-5.73 295.62-3 300.12-3L300.12-3Q303.02-3 305.52-4.65L305.52-4.65ZM333.92-12.6L333.92-12.6Q333.92-6.95 330.72-3.25 327.52 0.45 321.92 0.45L321.92 0.45Q316.47 0.45 313.29-3.23 310.12-6.9 310.12-12.5L310.12-12.5Q310.12-18.15 313.39-21.93 316.67-25.7 321.92-25.7L321.92-25.7Q327.67-25.7 330.79-22 333.92-18.3 333.92-12.6ZM314.22-12.55L314.22-12.55Q314.22-8.6 316.32-5.83 318.42-3.05 321.92-3.05L321.92-3.05Q325.72-3.05 327.77-5.78 329.82-8.5 329.82-12.55L329.82-12.55Q329.82-16.75 327.87-19.48 325.92-22.2 321.92-22.2L321.92-22.2Q318.32-22.2 316.27-19.4 314.22-16.6 314.22-12.55ZM343.62-13.85L343.62 0 339.67 0 339.72-25.35 343.62-25.35 343.62-20.9Q345.62-25.6 350.52-25.6L350.52-25.6Q351.42-25.6 351.92-25.5L351.92-25.5 351.92-21.6Q350.87-21.95 349.77-21.95L349.77-21.95Q347.12-21.95 345.37-19.5 343.62-17.05 343.62-13.85L343.62-13.85ZM359.91-3.85L359.91 9.85 356.01 9.85 356.01-25.35 359.91-25.35 359.91-21.5Q362.56-25.75 367.76-25.75L367.76-25.75Q372.81-25.75 375.69-22.08 378.56-18.4 378.56-12.9L378.56-12.9Q378.56-7.05 375.54-3.33 372.51 0.4 367.66 0.4L367.66 0.4Q362.66 0.4 359.91-3.85L359.91-3.85ZM359.91-12.65L359.91-12.65Q359.91-7.8 362.16-5.5 364.41-3.2 367.16-3.2L367.16-3.2Q370.36-3.2 372.41-5.73 374.46-8.25 374.46-12.9L374.46-12.9Q374.46-17.05 372.46-19.6 370.46-22.15 367.41-22.15 364.36-22.15 362.14-19.93 359.91-17.7 359.91-12.65ZM406.66-12.6L406.66-12.6Q406.66-6.95 403.46-3.25 400.26 0.45 394.66 0.45L394.66 0.45Q389.21 0.45 386.04-3.23 382.86-6.9 382.86-12.5L382.86-12.5Q382.86-18.15 386.14-21.93 389.41-25.7 394.66-25.7L394.66-25.7Q400.41-25.7 403.54-22 406.66-18.3 406.66-12.6ZM386.96-12.55L386.96-12.55Q386.96-8.6 389.06-5.83 391.16-3.05 394.66-3.05L394.66-3.05Q398.46-3.05 400.51-5.78 402.56-8.5 402.56-12.55L402.56-12.55Q402.56-16.75 400.61-19.48 398.66-22.2 394.66-22.2L394.66-22.2Q391.06-22.2 389.01-19.4 386.96-16.6 386.96-12.55ZM428.56-3.85L428.56 9.85 424.66 9.85 424.66-25.35 428.56-25.35 428.56-21.5Q431.21-25.75 436.41-25.75L436.41-25.75Q441.46-25.75 444.33-22.08 447.21-18.4 447.21-12.9L447.21-12.9Q447.21-7.05 444.18-3.33 441.16 0.4 436.31 0.4L436.31 0.4Q431.31 0.4 428.56-3.85L428.56-3.85ZM428.56-12.65L428.56-12.65Q428.56-7.8 430.81-5.5 433.06-3.2 435.81-3.2L435.81-3.2Q439.01-3.2 441.06-5.73 443.11-8.25 443.11-12.9L443.11-12.9Q443.11-17.05 441.11-19.6 439.11-22.15 436.06-22.15 433.01-22.15 430.78-19.93 428.56-17.7 428.56-12.65ZM475.3-12.6L475.3-12.6Q475.3-6.95 472.1-3.25 468.9 0.45 463.3 0.45L463.3 0.45Q457.85 0.45 454.68-3.23 451.5-6.9 451.5-12.5L451.5-12.5Q451.5-18.15 454.78-21.93 458.05-25.7 463.3-25.7L463.3-25.7Q469.05-25.7 472.18-22 475.3-18.3 475.3-12.6ZM455.6-12.55L455.6-12.55Q455.6-8.6 457.7-5.83 459.8-3.05 463.3-3.05L463.3-3.05Q467.1-3.05 469.15-5.78 471.2-8.5 471.2-12.55L471.2-12.55Q471.2-16.75 469.25-19.48 467.3-22.2 463.3-22.2L463.3-22.2Q459.7-22.2 457.65-19.4 455.6-16.6 455.6-12.55ZM483.7-12.4L483.7-12.4Q483.7-8.3 485.7-5.75 487.7-3.2 490.75-3.2L490.75-3.2Q493.85-3.2 496.03-5.5 498.2-7.8 498.2-12.85L498.2-12.85Q498.2-17.65 495.95-19.9 493.7-22.15 491-22.15L491-22.15Q487.85-22.15 485.78-19.63 483.7-17.1 483.7-12.4ZM502.15-35.35L502.15 0 498.2 0 498.2-3.75Q495.5 0.4 490.4 0.4L490.4 0.4Q485.35 0.4 482.48-3.35 479.6-7.1 479.6-12.45L479.6-12.45Q479.6-18.4 482.65-22.08 485.7-25.75 490.5-25.75L490.5-25.75Q495.45-25.75 498.2-21.5L498.2-21.5 498.2-35.35 502.15-35.35ZM527.95-5L527.95-1.3Q525 0.25 520.75 0.25L520.75 0.25Q515 0.25 511.47-3.28 507.95-6.8 507.95-12.6L507.95-12.6Q507.95-18.65 511.1-22.15 514.25-25.65 519.2-25.65L519.2-25.65Q523.95-25.65 526.75-22.6 529.55-19.55 529.55-13.95L529.55-13.95Q529.55-12.35 529.3-11L529.3-11 512-11Q512.45-7.25 514.85-5.25 517.25-3.25 521.15-3.25L521.15-3.25Q525.4-3.25 527.95-5L527.95-5ZM519.2-22.2L519.2-22.2Q516.35-22.2 514.35-20.15 512.35-18.1 512-14.3L512-14.3 525.6-14.3 525.6-15.3Q525.6-18.45 523.9-20.33 522.2-22.2 519.2-22.2ZM539.45-13.85L539.45 0 535.5 0 535.55-25.35 539.45-25.35 539.45-20.9Q541.45-25.6 546.35-25.6L546.35-25.6Q547.25-25.6 547.75-25.5L547.75-25.5 547.75-21.6Q546.7-21.95 545.6-21.95L545.6-21.95Q542.95-21.95 541.2-19.5 539.45-17.05 539.45-13.85L539.45-13.85ZM574.14-12.6L574.14-12.6Q574.14-6.95 570.94-3.25 567.74 0.45 562.14 0.45L562.14 0.45Q556.69 0.45 553.52-3.23 550.34-6.9 550.34-12.5L550.34-12.5Q550.34-18.15 553.62-21.93 556.89-25.7 562.14-25.7L562.14-25.7Q567.89-25.7 571.02-22 574.14-18.3 574.14-12.6ZM554.44-12.55L554.44-12.55Q554.44-8.6 556.54-5.83 558.64-3.05 562.14-3.05L562.14-3.05Q565.94-3.05 567.99-5.78 570.04-8.5 570.04-12.55L570.04-12.55Q570.04-16.75 568.09-19.48 566.14-22.2 562.14-22.2L562.14-22.2Q558.54-22.2 556.49-19.4 554.44-16.6 554.44-12.55ZM595.19-6.75L595.19-6.75Q595.19-3.5 592.91-1.6 590.64 0.3 586.69 0.3L586.69 0.3Q582.09 0.3 579.24-1.25L579.24-1.25 579.24-5.1Q582.59-3.1 586.44-3.1L586.44-3.1Q588.74-3.1 589.94-4 591.14-4.9 591.14-6.45L591.14-6.45Q591.14-8.25 589.81-9.25 588.49-10.25 585.39-11.5L585.39-11.5Q582.54-12.6 580.81-14.25 579.09-15.9 579.09-18.7L579.09-18.7Q579.09-21.85 581.46-23.73 583.84-25.6 587.39-25.6L587.39-25.6Q591.34-25.6 593.74-24.5L593.74-24.5 593.74-20.75Q591.44-22.15 587.44-22.15L587.44-22.15Q585.44-22.15 584.26-21.23 583.09-20.3 583.09-18.85L583.09-18.85Q583.09-17.95 583.44-17.28 583.79-16.6 584.81-15.95 585.84-15.3 586.31-15.08 586.79-14.85 588.39-14.15L588.39-14.15Q591.59-12.85 593.39-11.2 595.19-9.55 595.19-6.75ZM622.84-12.6L622.84-12.6Q622.84-6.95 619.64-3.25 616.44 0.45 610.84 0.45L610.84 0.45Q605.39 0.45 602.21-3.23 599.04-6.9 599.04-12.5L599.04-12.5Q599.04-18.15 602.31-21.93 605.59-25.7 610.84-25.7L610.84-25.7Q616.59-25.7 619.71-22 622.84-18.3 622.84-12.6ZM603.14-12.55L603.14-12.55Q603.14-8.6 605.24-5.83 607.34-3.05 610.84-3.05L610.84-3.05Q614.64-3.05 616.69-5.78 618.74-8.5 618.74-12.55L618.74-12.55Q618.74-16.75 616.79-19.48 614.84-22.2 610.84-22.2L610.84-22.2Q607.24-22.2 605.19-19.4 603.14-16.6 603.14-12.55ZM634.48-5.05L628.03 6.15 624.58 6.15 629.23-5.05 634.48-5.05ZM670.58-5L670.58-1.3Q667.63 0.25 663.38 0.25L663.38 0.25Q657.63 0.25 654.1-3.28 650.58-6.8 650.58-12.6L650.58-12.6Q650.58-18.65 653.73-22.15 656.88-25.65 661.83-25.65L661.83-25.65Q666.58-25.65 669.38-22.6 672.18-19.55 672.18-13.95L672.18-13.95Q672.18-12.35 671.93-11L671.93-11 654.63-11Q655.08-7.25 657.48-5.25 659.88-3.25 663.78-3.25L663.78-3.25Q668.03-3.25 670.58-5L670.58-5ZM661.83-22.2L661.83-22.2Q658.98-22.2 656.98-20.15 654.98-18.1 654.63-14.3L654.63-14.3 668.23-14.3 668.23-15.3Q668.23-18.45 666.53-20.33 664.83-22.2 661.83-22.2ZM693.43-6.75L693.43-6.75Q693.43-3.5 691.15-1.6 688.88 0.3 684.93 0.3L684.93 0.3Q680.33 0.3 677.48-1.25L677.48-1.25 677.48-5.1Q680.83-3.1 684.68-3.1L684.68-3.1Q686.98-3.1 688.18-4 689.38-4.9 689.38-6.45L689.38-6.45Q689.38-8.25 688.05-9.25 686.73-10.25 683.63-11.5L683.63-11.5Q680.78-12.6 679.05-14.25 677.33-15.9 677.33-18.7L677.33-18.7Q677.33-21.85 679.7-23.73 682.08-25.6 685.63-25.6L685.63-25.6Q689.58-25.6 691.98-24.5L691.98-24.5 691.98-20.75Q689.68-22.15 685.68-22.15L685.68-22.15Q683.68-22.15 682.5-21.23 681.33-20.3 681.33-18.85L681.33-18.85Q681.33-17.95 681.68-17.28 682.03-16.6 683.05-15.95 684.08-15.3 684.55-15.08 685.03-14.85 686.63-14.15L686.63-14.15Q689.83-12.85 691.63-11.2 693.43-9.55 693.43-6.75ZM711.47-4.4L711.47-0.65Q709.82 0.25 707.77 0.25L707.77 0.25Q700.27 0.25 700.27-7.4L700.27-7.4 700.27-22.15 696.22-22.15 696.22-25.35 700.27-25.35 700.27-31.65 704.22-31.65 704.22-25.35 711.22-25.35 711.22-22.15 704.22-22.15 704.22-7.3Q704.22-3.25 708.02-3.25L708.02-3.25Q709.97-3.25 711.47-4.4L711.47-4.4ZM721.37-25.35L721.37 0 717.42 0 717.42-25.35 721.37-25.35ZM721.22-35.15Q721.97-34.4 721.97-33.3 721.97-32.2 721.22-31.48 720.47-30.75 719.37-30.75 718.27-30.75 717.55-31.48 716.82-32.2 716.82-33.3 716.82-34.4 717.55-35.15 718.27-35.9 719.37-35.9 720.47-35.9 721.22-35.15ZM762.77-17.4L762.77 0 758.82 0 758.82-16.4Q758.82-22.15 753.97-22.15L753.97-22.15Q751.57-22.15 749.67-19.98 747.77-17.8 747.77-13.85L747.77-13.85 747.77 0 743.82 0 743.82-16.4Q743.82-22.15 738.97-22.15L738.97-22.15Q736.57-22.15 734.67-19.98 732.77-17.8 732.77-13.85L732.77-13.85 732.77 0 728.87 0 728.87-25.35 732.77-25.35 732.77-21.25Q734.87-25.7 739.92-25.7L739.92-25.7Q745.77-25.7 747.32-20.75L747.32-20.75Q748.42-23.15 750.39-24.43 752.37-25.7 754.82-25.7L754.82-25.7Q758.77-25.7 760.77-23.45 762.77-21.2 762.77-17.4L762.77-17.4ZM789.47-25.35L789.47 0 785.52 0 785.52-4.4Q783.52 0.3 777.57 0.3L777.57 0.3Q773.82 0.3 771.64-1.93 769.47-4.15 769.47-7.9L769.47-7.9 769.47-25.35 773.42-25.35 773.42-8.9Q773.42-6.15 774.82-4.7 776.22-3.25 778.62-3.25L778.62-3.25Q781.77-3.25 783.64-5.45 785.52-7.65 785.52-11.4L785.52-11.4 785.52-25.35 789.47-25.35ZM800.91-35.35L800.91 0 796.96 0 796.96-35.35 800.91-35.35ZM826.91-5L826.91-1.3Q823.96 0.25 819.71 0.25L819.71 0.25Q813.96 0.25 810.44-3.28 806.91-6.8 806.91-12.6L806.91-12.6Q806.91-18.65 810.06-22.15 813.21-25.65 818.16-25.65L818.16-25.65Q822.91-25.65 825.71-22.6 828.51-19.55 828.51-13.95L828.51-13.95Q828.51-12.35 828.26-11L828.26-11 810.96-11Q811.41-7.25 813.81-5.25 816.21-3.25 820.11-3.25L820.11-3.25Q824.36-3.25 826.91-5L826.91-5ZM818.16-22.2L818.16-22.2Q815.31-22.2 813.31-20.15 811.31-18.1 810.96-14.3L810.96-14.3 824.56-14.3 824.56-15.3Q824.56-18.45 822.86-20.33 821.16-22.2 818.16-22.2ZM861.96-6.75L861.96-6.75Q861.96-3.5 859.68-1.6 857.41 0.3 853.46 0.3L853.46 0.3Q848.86 0.3 846.01-1.25L846.01-1.25 846.01-5.1Q849.36-3.1 853.21-3.1L853.21-3.1Q855.51-3.1 856.71-4 857.91-4.9 857.91-6.45L857.91-6.45Q857.91-8.25 856.58-9.25 855.26-10.25 852.16-11.5L852.16-11.5Q849.31-12.6 847.58-14.25 845.86-15.9 845.86-18.7L845.86-18.7Q845.86-21.85 848.23-23.73 850.61-25.6 854.16-25.6L854.16-25.6Q858.11-25.6 860.51-24.5L860.51-24.5 860.51-20.75Q858.21-22.15 854.21-22.15L854.21-22.15Q852.21-22.15 851.03-21.23 849.86-20.3 849.86-18.85L849.86-18.85Q849.86-17.95 850.21-17.28 850.56-16.6 851.58-15.95 852.61-15.3 853.08-15.08 853.56-14.85 855.16-14.15L855.16-14.15Q858.36-12.85 860.16-11.2 861.96-9.55 861.96-6.75ZM887-25.35L887 0 883.05 0 883.05-4.4Q881.05 0.3 875.1 0.3L875.1 0.3Q871.35 0.3 869.18-1.93 867-4.15 867-7.9L867-7.9 867-25.35 870.95-25.35 870.95-8.9Q870.95-6.15 872.35-4.7 873.75-3.25 876.15-3.25L876.15-3.25Q879.3-3.25 881.18-5.45 883.05-7.65 883.05-11.4L883.05-11.4 883.05-25.35 887-25.35ZM902.05-3.05L902.05-3.05Q904.75-3.05 906.35-4.58 907.95-6.1 907.95-8.45L907.95-8.45 907.95-11.7 903.55-11.7Q900.35-11.7 898.75-10.45 897.15-9.2 897.15-7.3 897.15-5.4 898.4-4.23 899.65-3.05 902.05-3.05ZM908 0L908-3Q906.05 0.25 900.9 0.25L900.9 0.25Q897.35 0.25 895.18-1.85 893-3.95 893-7.15L893-7.15Q893-10.8 895.78-12.83 898.55-14.85 903.35-14.85L903.35-14.85 907.95-14.85 907.95-16.15Q907.95-19.15 906.6-20.68 905.25-22.2 902.05-22.2L902.05-22.2Q898-22.2 894.85-20.05L894.85-20.05 894.85-24Q897.7-25.75 902.35-25.75L902.35-25.75Q911.9-25.75 911.9-16.05L911.9-16.05 911.9 0 908 0Z" opacity="1" transform="matrix(1,0,0,1,0,0)" fill="#8eaec4" class="slogan-text-1" data-fill-palette-color="secondary" id="text-1"></path></svg></g></svg></g></svg></g></svg></g></svg></g></svg></g></svg></g><g><path d="M245.816 0c68.262 0 123.6 55.338 123.6 123.6 0 68.262-55.338 123.6-123.6 123.6-45.908 0-85.97-25.029-107.286-62.185l3.922 0c20.965 35.21 59.41 58.799 103.364 58.799 66.393 0 120.214-53.822 120.214-120.214 0-66.393-53.822-120.214-120.214-120.214-43.954 0-82.399 23.59-103.364 58.799h-3.922c21.316-37.156 61.378-62.185 107.286-62.185z" fill="#336a86" stroke="transparent" data-fill-palette-color="tertiary"></path></g></svg></g><defs></defs></svg><rect width="395.52" height="247.2" fill="none" stroke="none" visibility="hidden"></rect></g></svg></g></svg>